<svg width="64" height="47" viewBox="0 0 64 47" fill="none" xmlns="http://www.w3.org/2000/svg">
<path fill-rule="evenodd" clip-rule="evenodd" d="M11 0C19.2843 0 26 6.71573 26 15V15.168C27.6799 14.4176 29.5412 14 31.5 14C35.2046 14 38.5607 15.4921 41 17.9082C43.4393 15.4921 46.7954 14 50.5 14C57.9558 14 64 20.0442 64 27.5V47H56V27.5C56 24.4624 53.5376 22 50.5 22C47.4624 22 45 24.4624 45 27.5V47H37V27.5C37 24.4624 34.5376 22 31.5 22C28.4624 22 26 24.4624 26 27.5V47H18V27.5C18 26.993 18.0286 26.4925 18.083 26H15L14.6133 25.9951C6.50774 25.79 0 19.155 0 11V1C3.86556e-07 0.447716 0.447716 2.0133e-08 1 0H11ZM9 8C8.44772 8 8 8.44772 8 9V11C8 14.866 11.134 18 15 18H17C17.5523 18 18 17.5523 18 17V15C18 11.134 14.866 8 11 8H9Z" fill="#64B8B1"/>
</svg>
