<svg width="78" height="46" viewBox="0 0 78 46" fill="none" xmlns="http://www.w3.org/2000/svg">
<path fill-rule="evenodd" clip-rule="evenodd" d="M11 0C19.2843 0 26 6.71573 26 15V18.5654C26.007 18.6841 26.0117 18.8051 26.0117 18.9277V44.999C26.0117 45.5513 25.564 45.999 25.0117 45.999H18.7158C18.0332 45.999 17.4784 45.7642 17.0518 45.2949C16.6253 44.8257 16.4121 44.2072 16.4121 43.4395V26H15L14.6133 25.9951C6.50774 25.79 0 19.155 0 11V1C3.86556e-07 0.447716 0.447716 2.0133e-08 1 0H11ZM9 8C8.44772 8 8 8.44772 8 9V11C8 14.866 11.134 18 15 18H17C17.5523 18 18 17.5523 18 17V15C18 11.134 14.866 8 11 8H9Z" fill="white"/>
<path d="M36.3154 13.999C40.9661 13.999 43.292 16.2823 43.292 20.8477V44.999C43.292 45.5512 42.8442 45.9989 42.292 45.999H35.9961C35.3134 45.999 34.7587 45.7643 34.332 45.2949C33.9054 44.8256 33.6914 44.2073 33.6914 43.4395V20.7197C33.6914 20.0371 33.521 19.5457 33.1797 19.2471C32.8809 18.9485 32.1765 18.7988 31.0674 18.7988H28.6123C28.06 18.7988 27.6123 18.3511 27.6123 17.7988V14.999C27.6124 14.4469 28.0601 13.999 28.6123 13.999H36.3154Z" fill="white"/>
<path d="M53.6602 13.999C58.3106 13.9991 60.6357 16.2824 60.6357 20.8477V44.999C60.6357 45.5513 60.188 45.999 59.6357 45.999H53.3398C52.6572 45.999 52.1024 45.7643 51.6758 45.2949C51.2493 44.8257 51.0362 44.2073 51.0361 43.4395V20.7197C51.0361 20.0371 50.8648 19.5457 50.5234 19.2471C50.2246 18.9486 49.5209 18.7989 48.4121 18.7988H45.9561C45.4038 18.7988 44.9561 18.3511 44.9561 17.7988V14.999C44.9562 14.4469 45.4039 13.999 45.9561 13.999H53.6602Z" fill="white"/>
<path d="M70.9043 14C75.5546 14.0001 77.8798 16.2827 77.8799 20.8477V45C77.8799 45.5523 77.4322 46 76.8799 46H70.584C69.9013 46 69.3466 45.7652 68.9199 45.2959C68.4934 44.8267 68.2804 44.2082 68.2803 43.4404V20.7197C68.2802 20.0372 68.1089 19.5467 67.7676 19.248C67.4688 18.9495 66.7652 18.7998 65.6562 18.7998H63.2002C62.6479 18.7998 62.2002 18.3521 62.2002 17.7998V15C62.2002 14.4477 62.6479 14 63.2002 14H70.9043Z" fill="white" fill-opacity="0.4"/>
</svg>
